<?xml version="1.0" encoding="utf-8"?>
<!-- Uploaded to: SVG Repo, www.svgrepo.com, Generator: SVG Repo Mixer Tools -->
<svg width="800px" height="800px" viewBox="0 0 1024 1024" class="icon"  version="1.1" xmlns="http://www.w3.org/2000/svg"><path d="M243.768 527.046s140.309-159.748 268.333-159.748S780.43 538.2 780.43 538.2 640.126 697.942 512.1 697.942 243.768 527.046 243.768 527.046z" fill="#FCE3C3" /><path d="M511.333 532.62m-156.552 0a156.552 156.552 0 1 0 313.104 0 156.552 156.552 0 1 0-313.104 0Z" fill="#228E9D" /><path d="M512.101 697.942c-91.157 0-165.322-74.164-165.322-165.319 0-91.161 74.164-165.325 165.322-165.325S677.42 441.462 677.42 532.623c-0.001 91.155-74.161 165.319-165.319 165.319z m0-312.042c-80.9 0-146.72 65.82-146.72 146.723 0 80.897 65.82 146.717 146.72 146.717 80.901 0 146.717-65.82 146.717-146.717 0-80.904-65.817-146.723-146.717-146.723z" fill="#300604" /><path d="M512.101 697.942c-147.047 0-263.449-153.22-268.333-159.742l-4.172-5.577 4.172-5.577c4.884-6.522 121.286-159.748 268.333-159.748 147.045 0 263.446 153.226 268.33 159.748l4.175 5.577-4.175 5.577c-4.884 6.521-121.286 159.742-268.33 159.742zM263.075 532.617c22.35 27.442 126.575 146.723 249.026 146.723 122.439 0 226.661-119.263 249.02-146.717C738.762 505.168 634.54 385.9 512.101 385.9c-122.591 0-226.694 119.268-249.026 146.717z" fill="#300604" /><path d="M512.101 702.941c-149.519 0-267.391-155.142-272.335-161.745l-6.414-8.573 6.412-8.572c4.947-6.606 122.84-161.753 272.336-161.753 149.482 0 267.387 155.146 272.332 161.751l6.419 8.574-6.418 8.573c-4.945 6.605-122.829 161.745-272.332 161.745zM245.84 532.623l1.931 2.581c4.821 6.439 119.759 157.737 264.329 157.737 144.557 0 259.505-151.298 264.328-157.739l1.931-2.579-1.932-2.581c-4.822-6.439-119.793-157.744-264.327-157.744-144.548 0-259.507 151.304-264.33 157.745l-1.93 2.58zM512.101 684.34c-53.061 0-108.595-21.559-165.058-64.076-44.421-33.45-76.23-70.229-87.844-84.489l-2.57-3.155 2.569-3.157c11.604-14.263 43.386-51.048 87.786-84.491 56.444-42.515 111.998-64.071 165.118-64.071 53.058 0 108.587 21.557 165.048 64.072 44.427 33.453 76.236 70.233 87.85 84.494l2.571 3.157-2.571 3.157c-11.613 14.26-43.422 51.038-87.85 84.491-56.462 42.512-111.993 64.068-165.049 64.068zM269.552 532.615c13.089 15.718 42.927 49.104 83.506 79.659 54.691 41.184 108.201 62.065 159.043 62.065 50.838 0 104.345-20.879 159.032-62.058 40.583-30.557 70.421-63.941 83.511-79.659-13.09-15.719-42.929-49.105-83.511-79.663-54.688-41.181-108.194-62.061-159.032-62.061-50.901 0-104.431 20.88-159.102 62.06-40.558 30.55-70.37 63.938-83.447 79.657z" fill="#300604" /><path d="M512.099 532.621m-62.664 0a62.664 62.664 0 1 0 125.328 0 62.664 62.664 0 1 0-125.328 0Z" fill="#300604" /><path d="M512.101 604.582c-39.683 0-71.966-32.28-71.966-71.959 0-39.68 32.283-71.966 71.966-71.966 39.68 0 71.963 32.287 71.963 71.966 0 39.679-32.284 71.959-71.963 71.959z m0-125.324c-29.425 0-53.364 23.936-53.364 53.365 0 29.422 23.939 53.358 53.364 53.358 29.422 0 53.362-23.936 53.362-53.358-0.001-29.428-23.94-53.365-53.362-53.365z" fill="#300604" /><path d="M560.498 492.819m-34.798 0a34.798 34.798 0 1 0 69.596 0 34.798 34.798 0 1 0-69.596 0Z" fill="#FFFFFF" /><path d="M560.497 536.916c-24.315 0-44.097-19.783-44.097-44.094 0-24.317 19.782-44.1 44.097-44.1 24.318 0 44.1 19.783 44.1 44.1 0 24.311-19.782 44.094-44.1 44.094z m0-69.592c-14.057 0-25.495 11.439-25.495 25.498 0 14.054 11.438 25.493 25.495 25.493 14.06 0 25.498-11.439 25.498-25.493 0-14.06-11.438-25.498-25.498-25.498z" fill="#300604" /><path d="M719.699 200.17l-7.963 44.567 36.653 13.531-79.728 79.725 38.06 38.066 79.729-79.726 13.534 36.658 44.563-7.973V200.17zM237.748 296.333l79.73 79.726 38.06-38.066-79.728-79.725 36.652-13.531-7.963-44.567H179.652v124.848l44.563 7.973zM317.475 689.18l-79.728 79.73-13.532-36.655-44.563 7.973v124.848h124.847l7.963-44.574-36.649-13.526 79.728-79.73zM786.451 768.91l-79.727-79.73-38.066 38.066 79.727 79.73-36.646 13.526 7.96 44.574h124.848V740.228l-44.563-7.973z" fill="#B12800" /></svg>