<?xml version="1.0" encoding="iso-8859-1"?>
<!-- Uploaded to: SVG Repo, www.svgrepo.com, Generator: SVG Repo Mixer Tools -->
<svg height="800px" width="800px" version="1.1" id="Layer_1" xmlns="http://www.w3.org/2000/svg" xmlns:xlink="http://www.w3.org/1999/xlink" 
	 viewBox="0 0 512 512" xml:space="preserve">
<path style="fill:#F5C882;" d="M475.227,91.619L475.227,91.619c-38.239-38.239-100.237-38.239-138.476,0l-91.728,91.728
	l142.073,134.879l88.131-88.13C513.466,191.856,513.466,129.858,475.227,91.619z"/>
<g>
	<path style="fill:#F5AF73;" d="M336.752,91.619l-32.715,32.714l13.462,6.964c13.647,7.059,30.351,4.302,40.889-6.879
		c17.27-18.324,44.867-45.136,70.037-58.775C396.526,58.162,361.624,66.748,336.752,91.619z"/>
	<path style="fill:#F5AF73;" d="M270.762,177.478l-11.585,11.585l107.888,107.888l11.585-11.585
		c23.597-23.597,23.597-61.858,0-85.455l-22.432-22.432C332.62,153.881,294.359,153.881,270.762,177.478z"/>
</g>
<path style="fill:#9B735A;" d="M110.383,298.207l-73.611-73.611c-38.239-38.239-38.239-100.236,0-138.474l0,0
	c38.239-38.239,100.237-38.239,138.475,0.001l29.099,29.101c24.327-11.622,56.602-9.692,81.124,4.939l-16.831,59.352l133.53,133.53
	c11.566,11.566,10.887,30.741-2.036,41.415c-11.266,9.305-28.046,7.632-38.378-2.7l-7.489-7.489
	c11.566,11.566,10.887,30.741-2.036,41.415c-11.266,9.305-28.046,7.632-38.378-2.7l-7.55-7.55
	c11.566,11.566,10.887,30.741-2.036,41.415c-11.266,9.305-28.046,7.632-38.378-2.7l-7.14-7.14
	c11.566,11.566,10.887,30.741-2.036,41.415c-11.266,9.305-28.046,7.632-38.378-2.7L109.287,336.674L110.383,298.207z"/>
<g>
	<path style="fill:#8C5F50;" d="M135.903,326.604l0.672-23.592c0.271-9.496-3.383-18.682-10.1-25.399l-63.087-63.088
		c-29.633-29.633-36.26-73.516-19.961-109.569c1.668-3.69,0.886-8.009-2.213-10.614l0,0c-3.905-3.284-9.725-2.533-12.835,1.514
		c-29.508,38.388-26.767,93.582,8.394,128.741l73.611,73.611l-1.096,38.468l108.912,108.912c8.766,8.766,22.299,11.785,33.365,6.197
		c4.011-2.025,7.103-4.77,9.514-7.876c-5.934-1.034-11.644-3.773-16.126-8.256L135.903,326.604z"/>
	<path style="fill:#8C5F50;" d="M246.303,360.752c-4.668-4.668-12.236-4.668-16.905,0s-4.668,12.236,0,16.905l29.353,29.353
		c0,0,0,0-0.001-0.001l3.129,3.129l4.011,4.012c10.008,10.006,26.021,11.793,37.257,3.446L246.303,360.752z"/>
	<path style="fill:#8C5F50;" d="M293.463,328.785c-4.668-4.668-12.236-4.668-16.905,0c-4.668,4.668-4.668,12.236,0,16.905
		l29.758,29.758c-0.004-0.004-0.008-0.01-0.012-0.015l7.55,7.55c10.007,10.007,26.021,11.795,37.257,3.45L293.463,328.785z"/>
	<path style="fill:#8C5F50;" d="M340.623,296.819c-4.668-4.668-12.237-4.668-16.905,0s-4.668,12.236,0,16.905l30.572,30.572
		c-0.009-0.009-0.014-0.019-0.023-0.027l7.487,7.487c10.007,10.007,26.019,11.795,37.255,3.451L340.623,296.819z"/>
</g>
<g>
	<path style="fill:#F5C882;" d="M90.601,357.554L90.601,357.554c-10.925-10.925-10.925-28.639,0-39.564l9.892-9.892
		c10.925-10.925,28.639-10.925,39.564,0l0,0c10.925,10.925,10.925,28.639,0,39.564l-9.892,9.892
		C119.24,368.479,101.527,368.479,90.601,357.554z"/>
	<path style="fill:#F5C882;" d="M130.165,397.118L130.165,397.118c-10.925-10.925-10.925-28.639,0-39.564l0,0
		c10.925-10.925,28.639-10.925,39.564,0l0,0c10.925,10.925,10.925,28.639,0,39.564l0,0
		C158.804,408.043,141.091,408.043,130.165,397.118z"/>
	<path style="fill:#F5C882;" d="M174.676,431.736L174.676,431.736c-10.925-10.925-10.925-28.639,0-39.564l0,0
		c10.925-10.925,28.639-10.925,39.564,0l0,0c10.925,10.925,10.925,28.639,0,39.564l0,0
		C203.314,442.662,185.601,442.662,174.676,431.736z"/>
</g>
<g>
	<path style="fill:#F5AF73;" d="M118.655,329.499l9.892-9.892c4.144-4.143,9.266-6.699,14.621-7.699
		c-0.928-1.328-1.927-2.625-3.112-3.81c-10.925-10.925-28.639-10.925-39.564,0L90.6,317.99c-10.925,10.925-10.925,28.64,0,39.565
		l0,0c6.782,6.782,16.177,9.336,24.942,7.699C107.918,354.341,108.916,339.238,118.655,329.499z"/>
	<path style="fill:#F5AF73;" d="M156.602,365.107c3.797-3.797,8.432-6.186,13.299-7.344c-0.065-0.066-0.106-0.143-0.171-0.209
		c-10.925-10.925-28.639-10.925-39.565,0c-10.925,10.925-10.925,28.64,0,39.565c7.129,7.128,17.129,9.518,26.266,7.344
		C145.7,393.522,145.741,375.966,156.602,365.107z"/>
	<path style="fill:#F5AF73;" d="M202.191,434.973c-10.925-10.925-10.925-28.639,0-39.565c2.6-2.6,5.601-4.537,8.789-5.9
		c-10.948-8.07-26.392-7.248-36.304,2.663c-10.925,10.925-10.925,28.64,0,39.565c8.325,8.325,20.574,10.262,30.775,5.9
		C204.331,436.81,203.205,435.988,202.191,434.973z"/>
</g>
<path style="fill:#F5C882;" d="M229.076,139.948l-49.456,49.456c-10.925,10.925-10.925,28.639,0,39.564
	c10.925,10.925,28.639,10.925,39.565,0l97.917-97.917C289.946,113.061,253.002,116.023,229.076,139.948z"/>
<path d="M320.427,299.024c-3.16-3.16-8.285-3.16-11.444,0c-3.16,3.16-3.16,8.285,0,11.444l9.892,9.892
	c1.58,1.58,3.651,2.371,5.722,2.371s4.142-0.79,5.722-2.371c3.16-3.16,3.16-8.285,0-11.444L320.427,299.024z"/>
<path d="M224.908,361.763c-3.16-3.16-8.285-3.16-11.444,0c-3.16,3.16-3.16,8.284,0,11.444l9.892,9.892
	c1.58,1.581,3.651,2.371,5.722,2.371c2.071,0,4.142-0.79,5.722-2.371c3.161-3.16,3.161-8.284,0-11.444L224.908,361.763z"/>
<path d="M272.461,330.189c-3.161-3.16-8.285-3.16-11.444,0c-3.161,3.16-3.161,8.285,0,11.444l9.892,9.892
	c1.58,1.58,3.651,2.371,5.722,2.371s4.142-0.79,5.722-2.371c3.16-3.16,3.16-8.285,0-11.444L272.461,330.189z"/>
<path d="M512,160.899c0-28.316-11.028-54.938-31.05-74.961c-41.334-41.334-108.587-41.333-149.919,0l-29.096,29.096
	c-4.548-1.422-9.2-2.417-13.896-2.988c-24.621-14.247-56.01-16.601-81.862-6.4l-25.205-25.206
	c-20.023-20.023-46.645-31.05-74.96-31.05c-0.002,0,0.001,0,0,0c-28.315,0-54.939,11.028-74.96,31.049
	C11.027,100.463,0,127.084,0,155.4s11.027,54.937,31.049,74.96l68.235,68.235c-1.582,1.133-3.095,2.402-4.515,3.822l-9.892,9.892
	c-6.812,6.812-10.565,15.87-10.565,25.504c0,9.634,3.753,18.692,10.565,25.504c6.812,6.813,15.87,10.565,25.504,10.565
	c1.245,0,2.481-0.066,3.704-0.19c-1.062,10.422,2.388,21.221,10.356,29.189c7.032,7.032,16.269,10.548,25.505,10.548
	c2.839,0,5.677-0.336,8.451-0.999c0.111,9.472,3.845,18.361,10.554,25.07c6.812,6.813,15.87,10.565,25.504,10.565
	c4.338,0,8.557-0.767,12.508-2.225l5.648,5.648c7.36,7.36,17.149,11.123,26.823,11.123c8.045,0,16.012-2.604,22.431-7.905
	c7.728-6.383,12.483-15.702,13.101-25.636c11.658,3.902,24.804,2.03,34.454-5.939c7.66-6.326,12.399-15.536,13.083-25.371
	c11.764,4.092,25.112,2.275,34.881-5.793c7.67-6.335,12.411-15.561,13.086-25.41c11.749,4.065,25.066,2.239,34.817-5.816
	c7.862-6.494,12.647-16.025,13.129-26.15c0.465-9.765-3.091-19.33-9.767-26.428l72.301-72.301
	C500.973,215.837,512,189.215,512,160.899z M110.383,357.696c-5.311,0-10.304-2.068-14.06-5.824l0,0
	c-7.753-7.753-7.753-20.367,0-28.12l9.892-9.892c3.877-3.877,8.968-5.814,14.06-5.814c5.091,0,10.184,1.938,14.06,5.814
	c7.753,7.753,7.753,20.367,0,28.12l-9.892,9.892C120.687,355.628,115.694,357.696,110.383,357.696z M135.887,391.436
	c-7.753-7.753-7.753-20.367,0-28.12c7.753-7.753,20.367-7.752,28.12,0c7.753,7.753,7.753,20.367,0,28.12
	C156.254,399.189,143.64,399.189,135.887,391.436z M180.398,426.055c-3.755-3.755-5.824-8.749-5.824-14.06
	c0-5.311,2.069-10.304,5.824-14.06c3.755-3.756,8.749-5.824,14.06-5.824c5.311,0,10.304,2.069,14.06,5.824s5.824,8.749,5.824,14.06
	c0,5.311-2.069,10.304-5.824,14.06c-3.755,3.756-8.749,5.824-14.06,5.824C189.147,431.879,184.154,429.811,180.398,426.055z
	 M394.982,348.26c-7.777,6.422-19.856,5.463-27.503-2.183l-7.487-7.487l-9.892-9.892c-3.16-3.162-8.285-3.16-11.444,0
	c-3.16,3.16-3.16,8.285,0,11.444l9.892,9.892c3.953,3.952,6.067,9.424,5.801,15.013c-0.27,5.664-2.851,10.791-7.268,14.44
	c-7.777,6.423-19.856,5.463-27.503-2.182l-7.55-7.55l-9.892-9.892c-3.16-3.16-8.285-3.16-11.444,0c-3.16,3.16-3.16,8.285,0,11.444
	l9.892,9.892c3.952,3.953,6.067,9.424,5.801,15.013c-0.27,5.664-2.851,10.791-7.268,14.44c-7.777,6.422-19.856,5.463-27.503-2.183
	l-7.139-7.14l0,0l-9.892-9.892c-3.161-3.162-8.285-3.16-11.444,0c-3.161,3.16-3.161,8.285,0,11.444l9.886,9.885
	c0.002,0.002,0.003,0.003,0.005,0.005l0,0c3.953,3.953,6.067,9.424,5.801,15.014c-0.27,5.663-2.851,10.79-7.268,14.44
	c-7.777,6.423-19.856,5.463-27.503-2.183l-3.339-3.337c6.327-6.715,9.807-15.442,9.807-24.709c0-9.635-3.752-18.692-10.565-25.504
	c-6.812-6.813-15.87-10.565-25.504-10.565c-2.891,0-5.728,0.344-8.468,1.001c-0.112-9.087-3.619-18.138-10.537-25.055
	c-6.083-6.083-13.816-9.529-21.772-10.35c5.285-13.033,2.652-28.552-7.902-39.105c-8.184-8.184-19.355-11.596-30.036-10.254
	l-73.248-73.248c-16.968-16.966-26.311-39.522-26.311-63.514s9.343-46.55,26.309-63.515s39.522-26.308,63.515-26.308
	s46.55,9.343,63.515,26.309l29.099,29.101c2.426,2.426,6.116,3.057,9.211,1.58c13.218-6.316,28.627-8.35,43.552-6.254
	c-10.231,3.78-19.828,9.751-28.033,17.955l-49.456,49.456c-14.063,14.063-14.063,36.945,0,51.009
	c7.032,7.032,16.266,10.548,25.504,10.548c9.235,0,18.474-3.517,25.505-10.548l43.733-43.733l127.808,127.808
	c3.953,3.953,6.067,9.424,5.801,15.013C401.98,339.482,399.399,344.611,394.982,348.26z M397.225,296.695l-117.14-117.14
	l4.169-4.169c3.16-3.16,3.16-8.285,0-11.444c-3.16-3.16-8.285-3.16-11.444,0l-59.347,59.347c-7.753,7.753-20.368,7.752-28.12,0
	c-7.753-7.753-7.753-20.367,0-28.12l49.456-49.456c24.115-24.114,63.351-24.114,87.467,0c3.16,3.161,8.285,3.161,11.444,0
	c3.16-3.16,3.16-8.285,0-11.444c-4.858-4.858-10.206-8.931-15.881-12.238l24.646-24.646c35.022-35.021,92.008-35.022,127.031,0
	s35.022,92.008,0,127.031L397.225,296.695z"/>
</svg>