<?xml version="1.0" encoding="iso-8859-1"?>
<!-- Uploaded to: SVG Repo, www.svgrepo.com, Generator: SVG Repo Mixer Tools -->
<svg version="1.1" id="Layer_1" xmlns="http://www.w3.org/2000/svg" xmlns:xlink="http://www.w3.org/1999/xlink" 
	 viewBox="0 0 465 465" xml:space="preserve">
<g>
	<path style="fill:#FFFFFF;" d="M450,190H15v85h435V190z M232.5,260c-15.163,0-27.5-12.337-27.5-27.5s12.337-27.5,27.5-27.5
		s27.5,12.337,27.5,27.5S247.663,260,232.5,260z"/>
	<path style="fill:#F2A643;" d="M232.5,205c-15.163,0-27.5,12.337-27.5,27.5s12.337,27.5,27.5,27.5s27.5-12.337,27.5-27.5
		S247.663,205,232.5,205z"/>
	<rect x="15" y="290" style="fill:#3DB4EA;" width="435" height="85"/>
	<path style="fill:#3DB4EA;" d="M367.5,90H15v85h435V90h-52.5c-4.143,0-7.5-3.357-7.5-7.5h-15C375,86.643,371.643,90,367.5,90z"/>
	<path d="M457.5,75h-60c-4.143,0-7.5,3.357-7.5,7.5s3.357,7.5,7.5,7.5H450v85H15V90h352.5c4.143,0,7.5-3.357,7.5-7.5
		s-3.357-7.5-7.5-7.5H7.5C3.357,75,0,78.357,0,82.5v300c0,4.143,3.357,7.5,7.5,7.5h450c4.143,0,7.5-3.357,7.5-7.5v-300
		C465,78.357,461.643,75,457.5,75z M15,190h435v85H15V190z M15,375v-85h435v85H15z"/>
</g>
</svg>