<svg xmlns="http://www.w3.org/2000/svg" width="1.2em" height="1.2em" viewBox="0 0 24 24"><g fill="none" stroke="#B9CA88" stroke-linecap="round" stroke-linejoin="round" stroke-width="1.5" color="#B9CA88"><path d="M2.256 15.632c.034-.323.268-.583.736-1.104l1.031-1.153c.252-.32.431-.875.431-1.375s-.179-1.056-.43-1.375L2.991 9.472c-.468-.52-.702-.781-.736-1.104s.14-.627.49-1.234l.494-.857c.373-.648.56-.972.878-1.1c.317-.13.676-.028 1.395.176l1.22.343c.459.106.94.046 1.358-.169l.337-.194a2 2 0 0 0 .788-.968l.334-.997c.22-.66.33-.99.591-1.18C10.403 2 10.75 2 11.444 2h1.115c.694 0 1.042 0 1.303.189s.371.519.59 1.179l.335.997a2 2 0 0 0 .788.968l.337.194c.418.215.9.275 1.358.17l1.22-.344c.719-.204 1.078-.306 1.395-.177c.318.13.505.453.878 1.101l.493.857c.35.607.525.91.491 1.234s-.268.583-.736 1.104l-1.031 1.153c-.252.319-.431.875-.431 1.375s.179 1.056.43 1.375l1.032 1.153c.468.52.702.781.736 1.104s-.14.627-.49 1.234l-.494.857c-.373.648-.56.972-.878 1.1c-.317.13-.676.028-1.395-.176l-1.22-.343a2 2 0 0 0-1.359.169l-.336.194c-.36.23-.636.57-.788.968l-.334.997c-.22.66-.33.99-.591 1.18c-.261.188-.609.188-1.303.188h-1.115c-.694 0-1.041 0-1.303-.189c-.261-.189-.371-.518-.59-1.178"/><path d="M2.737 18.78c1.08-1.08 4.752-4.716 5.112-5.136c.381-.444.072-1.044.256-2.904c.089-.9.282-1.574.836-2.076c.66-.624 1.2-.624 3.06-.666c1.62.042 1.812-.138 1.98.282c.12.3-.24.48-.672.96c-.96.96-1.524 1.44-1.578 1.74c-.39 1.32 1.146 2.1 1.986 1.26c.318-.318 1.788-1.8 1.932-1.92c.108-.096.367-.092.492.06c.108.106.12.12.108.6c-.01.444-.006 1.082-.004 1.74c.001.852-.044 1.8-.404 2.28c-.72 1.08-1.92 1.14-3 1.188c-1.02.06-1.86-.048-2.124.144c-.216.108-1.356 1.308-2.736 2.688l-2.46 2.46c-2.04 1.62-4.284-.9-2.784-2.7"/></g></svg>