<?xml version="1.0" encoding="utf-8"?><!-- Uploaded to: SVG Repo, www.svgrepo.com, Generator: SVG Repo Mixer Tools -->
<svg width="800px" height="800px" viewBox="-1 0 32 32" fill="none" xmlns="http://www.w3.org/2000/svg">
<path d="M8.72727 0H7.27273C6.4694 0 5.81818 0.651222 5.81818 1.45455V5.81818C5.81818 6.62151 6.4694 7.27273 7.27273 7.27273H8.72727C9.5306 7.27273 10.1818 6.62151 10.1818 5.81818V1.45455C10.1818 0.651222 9.5306 0 8.72727 0Z" fill="#02B9FC"/>
<path d="M21.8182 0H20.3636C19.5603 0 18.9091 0.651222 18.9091 1.45455V5.81818C18.9091 6.62151 19.5603 7.27273 20.3636 7.27273H21.8182C22.6215 7.27273 23.2727 6.62151 23.2727 5.81818V1.45455C23.2727 0.651222 22.6215 0 21.8182 0Z" fill="#02B9FC"/>
<path d="M0 11.6364H29.0909V5.81818C29.0909 4.21154 27.7885 2.90909 26.1818 2.90909H2.90909C1.30245 2.90909 0 4.21154 0 5.81818V11.6364Z" fill="#02B9FC"/>
<path fill-rule="evenodd" clip-rule="evenodd" d="M2.90909 32C1.30245 32 0 30.6976 0 29.0909V11.6364H29.0909V29.0909C29.0909 30.6976 27.7885 32 26.1818 32H2.90909ZM10.3799 19.1073L14.0163 22.7437L20.5617 16.1982C21.289 15.4709 22.7435 16.9256 22.0163 17.6528C21.8614 17.8076 21.427 18.2592 20.8354 18.8742C18.6486 21.1474 14.3147 25.6528 14.0163 25.6528C13.7318 25.6528 11.4168 23.1954 9.97178 21.6615C9.49118 21.1514 9.10681 20.7433 8.92537 20.5619C8.19839 19.8347 9.65272 18.3801 10.3799 19.1073Z" fill="url(#paint0_linear_103_1778)"/>
<defs>
<linearGradient id="paint0_linear_103_1778" x1="14.5455" y1="11.6364" x2="14.5455" y2="32" gradientUnits="userSpaceOnUse">
<stop stop-color="#05D2FE"/>
<stop offset="1" stop-color="#02B9FC"/>
</linearGradient>
</defs>
</svg>