<svg version="1.1" id="Layer_1" xmlns="http://www.w3.org/2000/svg" xmlns:xlink="http://www.w3.org/1999/xlink" viewBox="0 0 496 496" xml:space="preserve" fill="#000000"><g id="SVGRepo_bgCarrier" stroke-width="0"></g><g id="SVGRepo_tracerCarrier" stroke-linecap="round" stroke-linejoin="round"></g><g id="SVGRepo_iconCarrier"> <g> <path style="fill:#74ACDF;" d="M0,304v65.6C0,396.8,21.6,416,48,416h400c26.4,0,48-19.2,48-46.4V304H0z"></path> <path style="fill:#74ACDF;" d="M448,80H48C21.6,80,0,99.2,0,126.4V192h496v-65.6C496,99.2,474.4,80,448,80z"></path> </g> <rect y="192" style="fill:#FFFFFF;" width="496" height="112"></rect> <g> <path style="fill:#5A9BCC;" d="M446.4,416c26.4,0,49.6-19.2,49.6-46.4V304H315.2L446.4,416z"></path> <path style="fill:#5A9BCC;" d="M448,80H48l132.8,112H496v-65.6C496,99.2,474.4,80,448,80z"></path> </g> <polygon style="fill:#E8F8FC;" points="316,304 496,304 496,192 180,192 "></polygon> <path style="fill:#418AB7;" d="M448,80H48l370.4,112H496v-65.6C496,99.2,474.4,80,448,80z"></path> <polygon style="fill:#CEECF4;" points="496,214.4 496,192 414.4,192 "></polygon> <path style="fill:#418AB7;" d="M496,368.8c0,28.8-21.6,47.2-48,47.2H48c-26.4,0-48-20.8-48-48"></path> <path style="fill:#F6B40E;" d="M304.8,247.2c-0.8-0.8-0.8-0.8-0.8-0.8l-31.2-0.8c1.6,0,2.4-0.8,4-1.6c3.2-0.8,5.6-2.4,8.8-1.6 c4.8,0.8,8.8-1.6,11.2-3.2c0.8-0.8,1.6-0.8,2.4-0.8c1.6-0.8,2.4,0,3.2,0c0.8,0,1.6,0.8,1.6,0v-0.8c-0.8-0.8-3.2-1.6-5.6-1.6 c-1.6,0-2.4,0.8-3.2,0.8c-1.6,0.8-4,2.4-9.6,1.6c-4,0-7.2,0.8-9.6,1.6c-1.6,0.8-3.2,0.8-4.8,0.8l28.8-13.6c0.8,0,1.6-0.8,0.8-1.6 c0,0,0-0.8-0.8-0.8s-1.6,0-1.6,0l-28.8,10.4c0.8-0.8,2.4-1.6,3.2-2.4c2.4-2.4,4-4,7.2-4.8c4.8-1.6,7.2-4.8,9.6-7.2 c0.8-0.8,1.6-1.6,1.6-1.6c0.8-0.8,2.4-0.8,3.2-0.8c0.8,0,1.6,0,1.6-0.8c0,0,0-0.8-0.8-0.8c-0.8-0.8-3.2-0.8-5.6,0.8 c-0.8,0.8-1.6,1.6-2.4,2.4c-1.6,1.6-3.2,3.2-8,4.8c-4,1.6-6.4,3.2-8,4.8c-0.8,0.8-2.4,1.6-4,2.4l21.6-23.2c0.8-0.8,0.8-1.6,0-1.6 c0,0-0.8,0-1.6,0h-0.8L264,228.8c0.8-1.6,1.6-2.4,1.6-4c1.6-2.4,2.4-5.6,4.8-7.2c4-3.2,4.8-7.2,5.6-9.6c0-0.8,0.8-1.6,0.8-2.4 c0.8-1.6,1.6-1.6,2.4-2.4c0.8,0,1.6-0.8,0.8-1.6c0,0,0-0.8-0.8-0.8c-1.6,0-3.2,0.8-4.8,3.2c-0.8,0.8-1.6,2.4-1.6,3.2 c-0.8,2.4-1.6,4.8-5.6,8c-3.2,2.4-4.8,5.6-5.6,7.2c-0.8,1.6-1.6,2.4-2.4,4l11.2-29.6c0,0,0,0,0-0.8s0-0.8-0.8-0.8s-0.8,0-1.6,0v0.8 l-12.8,28c0-1.6,0-2.4,0-4c0-3.2,0-5.6,1.6-8.8c2.4-4.8,1.6-8.8,1.6-11.2c0-0.8,0-1.6,0-2.4c0-1.6,0.8-2.4,1.6-3.2 c0.8-0.8,0.8-0.8,0.8-1.6c0,0-0.8-0.8-0.8,0c-0.8,0-3.2,1.6-3.2,4.8c0,1.6,0,2.4,0,4c0,2.4,0,4.8-2.4,9.6c-1.6,4-2.4,6.4-2.4,8.8 c0,1.6,0,3.2-0.8,4.8l-0.8-32c0-0.8,0-1.6-0.8-1.6s-0.8,0-0.8,0.8v0.8L248,224c0-1.6-0.8-2.4-1.6-4c-0.8-3.2-2.4-5.6-1.6-8.8 c0.8-4.8-1.6-8.8-3.2-11.2c-0.8-0.8-0.8-1.6-0.8-2.4c-0.8-1.6,0-2.4,0-3.2s0.8-1.6,0-1.6H240c-0.8,0.8-1.6,3.2-1.6,5.6 c0,1.6,0.8,2.4,0.8,3.2c0.8,2.4,2.4,4,1.6,9.6c0,4,0.8,7.2,1.6,9.6c0.8,1.6,0.8,3.2,0.8,4.8l-13.6-28.8c0-0.8-0.8-1.6-1.6-0.8 c0,0-0.8,0-0.8,0.8s0,1.6,0,1.6l10.4,28.8c-0.8-0.8-1.6-2.4-2.4-3.2c-2.4-2.4-4-4-4.8-7.2c-1.6-4.8-4.8-7.2-7.2-9.6 c-0.8-0.8-1.6-1.6-1.6-1.6c-0.8-0.8-0.8-2.4-0.8-3.2s0-1.6-0.8-1.6c0,0-0.8,0-0.8,0.8c-0.8,0.8-0.8,3.2,0.8,5.6 c0.8,0.8,1.6,1.6,2.4,2.4c1.6,1.6,3.2,3.2,4.8,8c1.6,4,3.2,6.4,4.8,8c0.8,0.8,1.6,2.4,2.4,4L209.6,208c-0.8-0.8-1.6-0.8-1.6,0 c0,0-0.8,0.8,0,1.6v0.8l20.8,22.4c-1.6-0.8-2.4-1.6-4-1.6c-2.4-1.6-5.6-2.4-7.2-4.8c-3.2-4-7.2-4.8-9.6-5.6c-0.8,0-1.6-0.8-2.4-0.8 c-1.6-0.8-1.6-1.6-2.4-2.4c0-0.8-0.8-1.6-1.6-0.8c0,0-0.8,0-0.8,0.8c0,1.6,0.8,3.2,3.2,4.8c0.8,0.8,2.4,0.8,3.2,1.6 c2.4,0.8,4.8,1.6,8,5.6c2.4,3.2,5.6,4.8,7.2,5.6c1.6,0.8,2.4,1.6,4,2.4l-29.6-11.2c0,0,0,0-0.8,0s-0.8,0-0.8,0.8v0.8 c0,0.8,0.8,0.8,0.8,0.8l28,12.8c-1.6,0-2.4,0-4,0c-3.2,0-5.6,0-8.8-1.6c-4.8-2.4-8.8-1.6-11.2-1.6c-0.8,0-1.6,0-2.4,0 c-1.6,0-2.4-0.8-3.2-1.6s-0.8-0.8-1.6-0.8c0,0-0.8,0.8,0,0.8c0,0.8,1.6,3.2,4.8,3.2c1.6,0,2.4,0,4,0c2.4,0,4.8,0,9.6,2.4 c4,1.6,6.4,2.4,8.8,2.4c1.6,0,3.2,0,4.8,0.8l-32,0.8c-0.8,0-1.6,0-1.6,0.8v0.8c0.8,0.8,0.8,0.8,0.8,0.8l31.2,0.8 c-1.6,0-2.4,0.8-4,1.6c-3.2,0.8-5.6,2.4-8.8,1.6c-4.8-0.8-8.8,1.6-11.2,3.2c-0.8,0.8-1.6,0.8-2.4,0.8c-1.6,0.8-2.4,0-3.2,0 s-1.6-0.8-1.6,0v0.8c0.8,0.8,3.2,1.6,5.6,1.6c1.6,0,2.4-0.8,3.2-0.8c1.6-0.8,4-2.4,9.6-1.6c4,0,7.2-0.8,9.6-1.6 c1.6-0.8,3.2-0.8,4.8-0.8L196,268c-0.8,0-1.6,1.6-0.8,2.4c0,0.8,0.8,1.6,0.8,1.6l0,0l0.8-0.8l28.8-11.2c-0.8,0.8-2.4,1.6-3.2,2.4 c-2.4,2.4-4,4-7.2,4.8c-4.8,1.6-7.2,4.8-9.6,7.2c-0.8,0.8-1.6,1.6-1.6,1.6c-0.8,0.8-2.4,0.8-3.2,0.8s-1.6,0-1.6,0.8 c0,0,0,0.8,0.8,0.8c0.8,0.8,3.2,0.8,5.6-0.8c0.8-0.8,1.6-1.6,2.4-2.4c1.6-1.6,3.2-3.2,8-4.8c4-1.6,6.4-3.2,8-4.8 c0.8-0.8,2.4-1.6,4-2.4l-20,23.2c0,0,0,0,0,0.8s0,0.8,0,0.8h0.8l0,0c0.8,0,0.8,0,0.8,0l22.4-20.8c-0.8,1.6-1.6,2.4-1.6,4 c-1.6,2.4-2.4,5.6-4.8,7.2c-4,3.2-4.8,7.2-5.6,9.6c0,0.8-0.8,1.6-0.8,2.4c-0.8,1.6-1.6,1.6-2.4,2.4c-0.8,0-1.6,0.8-0.8,1.6 c0,0,0,0.8,0.8,0.8c1.6,0,3.2-0.8,4.8-3.2c0.8-0.8,1.6-2.4,1.6-3.2c0.8-2.4,1.6-4.8,5.6-8c3.2-2.4,4.8-5.6,5.6-7.2s1.6-2.4,2.4-4 l-11.2,29.6c0,0,0,0,0,0.8s0,0.8,0.8,0.8c0,0,0,0,0.8,0l0,0c0.8,0,0.8-0.8,0.8-0.8l12.8-28c0,1.6,0,2.4,0,4c0,3.2,0,5.6-1.6,8.8 c-2.4,4.8-1.6,8.8-1.6,11.2c0,0.8,0,1.6,0,2.4c0,1.6-0.8,2.4-1.6,3.2c0,0.8-0.8,0.8,0,1.6c0,0,0.8,0.8,0.8,0c1.6,0,3.2-1.6,3.2-4.8 c0-1.6,0-2.4,0-4c0-2.4,0-4.8,2.4-9.6c1.6-4,2.4-6.4,2.4-8.8c0-1.6,0-3.2,0.8-4.8l0.8,32c0,0.8,0,1.6,0.8,1.6h0.8 c0.8-0.8,0.8-0.8,0.8-0.8l0.8-31.2c0,1.6,0.8,2.4,1.6,4c0.8,3.2,2.4,5.6,1.6,8.8c-0.8,4.8,1.6,8.8,3.2,11.2c0.8,0.8,0.8,1.6,0.8,2.4 c0.8,1.6,0,2.4,0,3.2c0,0.8-0.8,1.6,0,1.6c0,0,0,0,0.8,0h0.8c0.8-0.8,1.6-3.2,1.6-5.6c0-1.6-0.8-2.4-0.8-3.2c-0.8-2.4-2.4-4-1.6-9.6 c0-4-0.8-7.2-1.6-9.6c-0.8-1.6-0.8-3.2-0.8-4.8l13.6,28.8c0,0.8,0.8,1.6,1.6,0.8c0.8,0,0.8-0.8,0.8-0.8v-0.8l-10.4-28.8 c0.8,0.8,1.6,2.4,2.4,3.2c2.4,2.4,4,4,4.8,7.2c1.6,4.8,4.8,7.2,7.2,9.6c0.8,0.8,1.6,1.6,1.6,1.6c0.8,0.8,0.8,2.4,0.8,3.2 c0,0.8,0,1.6,0.8,1.6l0,0c0,0,0.8,0,0.8-0.8c0.8-0.8,0.8-3.2-0.8-5.6c-0.8-0.8-1.6-1.6-2.4-2.4c-1.6-1.6-3.2-3.2-4.8-8 c-1.6-4-3.2-6.4-4.8-8c-0.8-0.8-1.6-2.4-2.4-4l23.2,21.6c0,0,0,0,0.8,0s0.8,0,1.6,0v-0.8c0-0.8-0.8-0.8-0.8-0.8l-21.6-24 c1.6,0.8,2.4,1.6,4,1.6c2.4,1.6,5.6,2.4,7.2,4.8c3.2,4,7.2,4.8,9.6,5.6c0.8,0,1.6,0.8,2.4,0.8c1.6,0.8,1.6,1.6,2.4,2.4 c0,0.8,0.8,0.8,0.8,0.8l0,0c0,0,0.8,0,0.8-0.8c0-1.6-0.8-3.2-3.2-4.8c-0.8-0.8-2.4-1.6-3.2-1.6c-2.4-0.8-4.8-1.6-8-5.6 c-2.4-3.2-5.6-4.8-7.2-5.6c-1.6-0.8-2.4-1.6-4-2.4l29.6,11.2c0,0,0,0,0.8,0s0.8,0,0.8-0.8v-0.8c0-0.8-0.8-0.8-0.8-0.8l-28-12.8 c1.6,0,2.4,0,4,0c3.2,0,5.6,0,8.8,1.6c4.8,2.4,8.8,1.6,11.2,1.6c0.8,0,1.6,0,2.4,0c1.6,0,2.4,0.8,3.2,1.6l0.8,0.8c0,0,0,0,0.8,0 c0,0,0.8-0.8,0-0.8c0-1.6-1.6-3.2-4.8-3.2c-1.6,0-2.4,0-4,0c-2.4,0-4.8,0-9.6-2.4c-4-1.6-6.4-2.4-8.8-2.4c-1.6,0-3.2,0-4.8-0.8 l32-0.8C304,248.8,304.8,248.8,304.8,247.2C304.8,248,304.8,247.2,304.8,247.2z"></path> <g> <path style="fill:#E8F8FC;" d="M256.8,244L256.8,244c1.6,0,4-0.8,4.8-1.6c-1.6-1.6-3.2-2.4-4.8-2.4c-1.6,0-3.2,0.8-4.8,2.4 C253.6,244,255.2,244,256.8,244L256.8,244z M260.8,242.4c-0.8,0.8-1.6,1.6-3.2,1.6c0.8,0,0.8-0.8,0.8-1.6s-0.8-0.8-0.8-1.6 C259.2,240.8,260.8,241.6,260.8,242.4z M253.6,242.4c0.8-0.8,1.6-1.6,2.4-1.6c0,0-0.8,0.8-0.8,1.6s0.8,1.6,0.8,1.6 C255.2,244,254.4,243.2,253.6,242.4z"></path> <path style="fill:#E8F8FC;" d="M257.6,239.2c-2.4,0-3.2,0.8-4.8,1.6c-1.6,0.8-1.6,0.8-2.4,0.8c0,0,0,0.8,0.8,0.8s1.6-0.8,2.4-1.6 C255.2,240,256,240,257.6,239.2c4,0.8,5.6,4,6.4,3.2C264,242.4,261.6,239.2,257.6,239.2z"></path> <path style="fill:#E8F8FC;" d="M264.8,240L264.8,240L264.8,240z"></path> <path style="fill:#E8F8FC;" d="M249.6,238.4c0,0.8-0.8,1.6-0.8,2.4c-0.8,3.2,0,6.4,1.6,9.6l0.8-0.8c-1.6-2.4-2.4-4.8-2.4-7.2 c0-1.6,0.8-2.4,1.6-3.2c3.2-3.2,9.6-2.4,13.6,1.6C260,234.4,254.4,234.4,249.6,238.4z"></path> <path style="fill:#E8F8FC;" d="M254.4,244.8c-1.6-0.8-2.4-1.6-2.4-1.6c-0.8,0-0.8,0.8,1.6,1.6c2.4,1.6,5.6,1.6,8.8-1.6 C258.4,245.6,256,245.6,254.4,244.8z"></path> <path style="fill:#E8F8FC;" d="M252,252c-0.8,0-0.8-0.8-1.6-0.8c0,0-0.8,1.6-2.4,1.6s-2.4-1.6-2.4-1.6c0,0.8-0.8,0.8-1.6,0.8 s-1.6-0.8-1.6-1.6c0-0.8,0-0.8,0.8-0.8c-0.8,0-1.6,0.8-1.6,1.6c0,0.8,0.8,1.6,1.6,1.6s0.8,0,1.6-0.8c0.8,0.8,1.6,0.8,2.4,0.8l0,0 c0.8,0,1.6,0,2.4-0.8c0,0.8,0.8,0.8,1.6,0.8c0.8,0,1.6-0.8,1.6-1.6c0-0.8-0.8-1.6-1.6-1.6c0.8,0,0.8,0.8,0.8,0.8 C252.8,252,252.8,252,252,252z"></path> <path style="fill:#E8F8FC;" d="M254.4,258.4c-4-1.6-4.8-0.8-6.4-0.8l0,0c-0.8,0-1.6,0-2.4,0c-0.8,0-1.6,0-3.2,0.8h-0.8 c4,0.8,2.4,3.2,6.4,3.2l0,0C252.8,261.6,250.4,258.4,254.4,258.4L254.4,258.4L254.4,258.4z M248,260.8L248,260.8 c-3.2,0-2.4-2.4-6.4-2.4c3.2-0.8,4,0.8,5.6,0.8l0,0c1.6,0,2.4-1.6,6.4-0.8C250.4,258.4,251.2,260.8,248,260.8z"></path> <path style="fill:#E8F8FC;" d="M248,256.8L248,256.8c0.8,0,2.4-0.8,3.2,0c1.6,0.8,2.4,1.6,3.2,2.4c-1.6-1.6-2.4-3.2-4.8-3.2 C249.6,255.2,248.8,255.2,248,256.8L248,256.8c-0.8-0.8-1.6-1.6-2.4-1.6c-2.4,0-3.2,1.6-4.8,3.2c0.8-0.8,1.6-1.6,3.2-2.4 C245.6,255.2,247.2,256.8,248,256.8z"></path> <path style="fill:#E8F8FC;" d="M248,261.6c-2.4,0-4,1.6-4,4C244.8,263.2,246.4,262.4,248,261.6c1.6,0.8,3.2,1.6,4,4 C251.2,263.2,249.6,261.6,248,261.6z"></path> <path style="fill:#E8F8FC;" d="M231.2,240L231.2,240L231.2,240z"></path> <path style="fill:#E8F8FC;" d="M245.6,238.4c0.8,0.8,1.6,2.4,1.6,3.2c0.8,2.4,0,4.8-2.4,7.2c0,0,0.8,0,0.8,0.8 c1.6-3.2,2.4-6.4,1.6-9.6c0-0.8,0-1.6-0.8-2.4c-4.8-4-10.4-4-15.2,2.4C236,236,241.6,235.2,245.6,238.4z"></path> <path style="fill:#E8F8FC;" d="M242.4,240.8c1.6,0.8,2.4,1.6,2.4,1.6c0.8,0,0.8-0.8,0.8-0.8s-0.8,0-2.4-0.8 c-1.6-0.8-1.6-1.6-4.8-1.6c-4,0-6.4,3.2-6.4,3.2c0.8,0,2.4-3.2,6.4-3.2C240,240,240.8,240,242.4,240.8z"></path> <path style="fill:#E8F8FC;" d="M233.6,242.4c0.8,0.8,3.2,1.6,4.8,1.6l0,0l0,0c1.6,0,3.2-0.8,4.8-1.6c-0.8-1.6-3.2-2.4-4.8-2.4 C236.8,240,235.2,240.8,233.6,242.4z M234.4,242.4c0.8-0.8,1.6-1.6,3.2-1.6c-0.8,0-0.8,0.8-0.8,1.6s0.8,1.6,1.6,1.6 C236.8,244,236,243.2,234.4,242.4z M240,240.8c0.8,0,1.6,0.8,2.4,1.6c-0.8,0.8-1.6,0.8-2.4,1.6c0,0,0.8-0.8,0.8-1.6 S240.8,241.6,240,240.8z"></path> <path style="fill:#E8F8FC;" d="M244,243.2c0,0-0.8,0.8-2.4,1.6c-1.6,0.8-4,0.8-8-0.8c3.2,2.4,7.2,2.4,8.8,1.6 C244.8,243.2,244.8,243.2,244,243.2z"></path> </g> </g></svg>
