<svg height="200px" width="200px" version="1.1" id="Capa_1" xmlns="http://www.w3.org/2000/svg" xmlns:xlink="http://www.w3.org/1999/xlink" viewBox="0 0 23.136 23.136" xml:space="preserve" fill="#000000"><g id="SVGRepo_bgCarrier" stroke-width="0"></g><g id="SVGRepo_tracerCarrier" stroke-linecap="round" stroke-linejoin="round"></g><g id="SVGRepo_iconCarrier"> <g> <path style="fill:#030104;" d="M21.658,0H1.477C0.662,0,0,0.661,0,1.477v20.182c0,0.814,0.662,1.477,1.477,1.477h20.181 c0.815,0,1.477-0.662,1.477-1.477V1.476C23.134,0.661,22.473,0,21.658,0z M10.505,13.04c0,0.643-0.061,1.191-0.183,1.643 s-0.307,0.815-0.553,1.099c-0.247,0.28-0.556,0.487-0.924,0.616c-0.369,0.131-0.798,0.195-1.287,0.195 c-0.43,0-0.818-0.068-1.167-0.203s-0.644-0.328-0.888-0.58c-0.245-0.253-0.433-0.558-0.565-0.916 c-0.133-0.359-0.199-0.76-0.199-1.199v-0.288h1.386c0,1.29,0.478,1.936,1.434,1.936c0.245,0,0.462-0.028,0.654-0.087 c0.191-0.06,0.353-0.169,0.486-0.332c0.133-0.162,0.233-0.386,0.302-0.676s0.104-0.668,0.104-1.135V5.895h1.402v7.145H10.505z M18.24,15.135c-0.143,0.292-0.347,0.547-0.608,0.765c-0.263,0.218-0.584,0.387-0.961,0.511c-0.376,0.121-0.8,0.182-1.267,0.182 c-2.07,0-3.163-0.817-3.274-2.453h1.362c0.006,0.924,0.639,1.387,1.897,1.387c0.279,0,0.529-0.03,0.744-0.093 c0.215-0.061,0.395-0.146,0.537-0.254c0.144-0.108,0.252-0.237,0.327-0.384c0.073-0.146,0.112-0.305,0.112-0.479 c0-0.183-0.029-0.328-0.084-0.438c-0.056-0.111-0.166-0.21-0.328-0.296c-0.161-0.085-0.386-0.169-0.672-0.25 c-0.287-0.084-0.662-0.187-1.124-0.308c-0.45-0.112-0.84-0.224-1.166-0.336c-0.328-0.11-0.596-0.245-0.805-0.404 c-0.21-0.16-0.366-0.356-0.467-0.589c-0.101-0.234-0.151-0.529-0.151-0.885c0-0.313,0.066-0.604,0.199-0.872s0.322-0.5,0.57-0.697 c0.246-0.197,0.545-0.35,0.895-0.462c0.353-0.112,0.743-0.167,1.172-0.167c2.002,0,3.02,0.711,3.051,2.135H16.86 c-0.048-0.711-0.584-1.068-1.609-1.068c-0.228,0-0.438,0.023-0.633,0.068s-0.362,0.11-0.506,0.195s-0.254,0.19-0.335,0.315 c-0.079,0.125-0.119,0.27-0.119,0.434c0,0.149,0.019,0.271,0.056,0.366c0.037,0.096,0.126,0.186,0.267,0.268 s0.35,0.163,0.625,0.243c0.276,0.08,0.653,0.178,1.132,0.295c0.462,0.111,0.863,0.227,1.204,0.346 c0.339,0.12,0.621,0.265,0.848,0.435c0.226,0.169,0.392,0.376,0.502,0.621c0.108,0.244,0.163,0.55,0.163,0.916 C18.455,14.525,18.382,14.843,18.24,15.135z"></path> </g> </g></svg>