<?xml version="1.0" encoding="utf-8"?>
<!-- Uploaded to: SVG Repo, www.svgrepo.com, Generator: SVG Repo Mixer Tools -->
<svg width="800px" height="800px" viewBox="0 0 1024 1024" class="icon"  version="1.1" xmlns="http://www.w3.org/2000/svg"><path d="M393.3 768H392h1.3z" fill="#202020" /><path d="M511.9 199.6C355.7 199.6 229 326.2 229 482.5c0 103.8 55.9 194.6 139.3 243.8v89.8c0 1.3 0 2.5 0.1 3.8 0.1 3.2 0.3 6.4 0.6 9.6 6.8 72.8 68.6 130.3 143.1 130.3 39.5 0 75.4-16.2 101.5-42.2 23-23 38.3-53.8 41.6-87.9 0.3-3.2 0.5-6.4 0.6-9.6 0-1.3 0.1-2.7 0.1-4v-90l0.6-0.3C739.4 676.5 795 586 795 482.5c-0.2-156.3-126.8-282.9-283.1-282.9zM391.9 768h1.3-1.3z m219.8 48.1c0 5.8-0.5 11.5-1.5 17-1.1 6.5-2.9 12.8-5.3 18.9-5 12.7-12.6 24.5-22.6 34.5-18.9 18.9-43.9 29.3-70.4 29.3-26.5 0-51.5-10.4-70.4-29.3-10-10-17.7-21.8-22.7-34.6-2.4-6.1-4.1-12.4-5.2-18.9-1-5.5-1.4-11.2-1.4-16.9v-8.8h199.4v8.8z m0-24.8H412.3v-47.7h199.4v47.7z m69.1-139.9c-7.8 7.8-15.9 14.9-24.5 21.4-13.7 10.4-28.4 19.3-44 26.5l-0.6 0.3v0.1H412.3c-15.4-7.1-29.9-15.7-43.4-25.8-9.1-6.8-17.7-14.3-25.9-22.5-22-22-39.2-47.5-51.2-75.9-12.5-29.4-18.8-60.7-18.8-93s6.3-63.5 18.8-93c12-28.4 29.3-54 51.2-76 22-22 47.5-39.2 76-51.2 29.4-12.4 60.7-18.7 93-18.7s63.6 6.3 93 18.7c28.4 12 54 29.3 76 51.2 22 22 39.2 47.5 51.2 76 12.4 29.4 18.8 60.7 18.8 93s-6.3 63.5-18.8 93c-12.2 28.4-29.4 53.9-51.4 75.9z" fill="#39393A" /><path d="M391.9 768h1.3-1.3z" fill="#343535" /><path d="M511.9 432.3c-39.7 0-72 32.3-72 72 0 37.3 28.6 68.1 65 71.7v123.7h14V576c36.4-3.5 65-34.3 65-71.7 0-39.7-32.3-72-72-72z m0 128c-30.9 0-56-25.1-56-56s25.1-56 56-56 56 25.1 56 56-25.1 56-56 56z" fill="#E73B37" /><path d="M512 103.6m-39.4 0a39.4 39.4 0 1 0 78.8 0 39.4 39.4 0 1 0-78.8 0Z" fill="#E73B37" /><path d="M244.2 214.5m-39.4 0a39.4 39.4 0 1 0 78.8 0 39.4 39.4 0 1 0-78.8 0Z" fill="#E73B37" /><path d="M133.3 482.2m-39.4 0a39.4 39.4 0 1 0 78.8 0 39.4 39.4 0 1 0-78.8 0Z" fill="#E73B37" /><path d="M890.7 482.2m-39.4 0a39.4 39.4 0 1 0 78.8 0 39.4 39.4 0 1 0-78.8 0Z" fill="#E73B37" /><path d="M779.8 214.5m-39.4 0a39.4 39.4 0 1 0 78.8 0 39.4 39.4 0 1 0-78.8 0Z" fill="#E73B37" /></svg>