<svg xmlns="http://www.w3.org/2000/svg" width="1em" height="1em" viewBox="0 0 36 36"><path fill="#46b1b9" d="M30 13.5a7.49 7.49 0 0 1-6.46-3.7H11.25V8a1 1 0 0 1 1-1h3.44v-.68a2.31 2.31 0 0 1 4.63 0V7h2.26a8 8 0 0 1-.07-1a7.5 7.5 0 0 1 .08-1.05h-.5a4.31 4.31 0 0 0-8.17 0H7a1.75 1.75 0 0 0-2 1.69v25.62a1.7 1.7 0 0 0 1.71 1.69h22.58A1.7 1.7 0 0 0 31 32.26V13.43a7.5 7.5 0 0 1-1 .07m-4.23 3.71l-9.12 9.12l-5.24-5.24a1.4 1.4 0 0 1 2-2l3.26 3.26l7.14-7.14a1.4 1.4 0 1 1 2 2Z" class="clr-i-solid--badged clr-i-solid-path-1--badged"/><circle cx="30" cy="6" r="5" fill="#46b1b9" class="clr-i-solid--badged clr-i-solid-path-2--badged clr-i-badge"/><path fill="none" d="M0 0h36v36H0z"/></svg>