<?xml version="1.0" encoding="iso-8859-1"?>
<!-- Uploaded to: SVG Repo, www.svgrepo.com, Generator: SVG Repo Mixer Tools -->
<svg height="800px" width="800px" version="1.1" id="Layer_1" xmlns="http://www.w3.org/2000/svg" xmlns:xlink="http://www.w3.org/1999/xlink" 
	 viewBox="0 0 511.997 511.997" xml:space="preserve">
<path style="fill:#FFE6B8;" d="M235.386,59.433c0.43,6.601,3.817,12.74,9.364,16.343c6.847,4.448,15.652,4.448,22.498,0
	c5.547-3.604,8.933-9.742,9.364-16.343l1.634-25.046c0.838-12.856-9.363-23.745-22.246-23.745l0,0
	c-12.884,0-23.085,10.889-22.246,23.745L235.386,59.433z"/>
<path style="fill:#BCC987;" d="M323.799,135.377c-3.039-16.779-16.136-29.575-32.393-32.636c-2.446-0.461-4.963-0.703-7.529-0.703
	h-8.535l0,0c-10.683,10.683-28.004,10.683-38.687,0l0,0h-8.535c-2.566,0-5.083,0.243-7.529,0.703
	c-16.257,3.061-29.353,15.858-32.393,32.636l-2.833,15.643h141.266L323.799,135.377z"/>
<path style="fill:#FFE6B8;" d="M235.386,409.767c0.43,6.601,3.817,12.74,9.364,16.343c6.847,4.448,15.652,4.448,22.498,0
	c5.547-3.604,8.933-9.742,9.364-16.343l1.634-25.046c0.838-12.856-9.363-23.745-22.246-23.745l0,0
	c-12.884,0-23.085,10.889-22.246,23.745L235.386,409.767z"/>
<path style="fill:#BCC987;" d="M323.799,485.713c-3.039-16.779-16.136-29.576-32.393-32.636c-2.446-0.461-4.963-0.703-7.529-0.703
	h-8.535l0,0c-10.683,10.683-28.004,10.683-38.687,0l0,0h-8.535c-2.566,0-5.083,0.243-7.529,0.703
	c-16.257,3.061-29.353,15.858-32.393,32.636l-2.833,15.643h141.266L323.799,485.713z"/>
<path style="fill:#FFE6B8;" d="M60.219,234.6c0.43,6.601,3.817,12.74,9.364,16.343c6.847,4.448,15.652,4.448,22.498,0
	c5.547-3.604,8.933-9.742,9.364-16.343l1.634-25.046c0.838-12.856-9.363-23.745-22.247-23.745l0,0
	c-12.884,0-23.085,10.889-22.246,23.745L60.219,234.6z"/>
<path style="fill:#BCC987;" d="M148.632,310.544c-3.039-16.779-16.136-29.575-32.393-32.636c-2.446-0.461-4.963-0.703-7.529-0.703
	h-8.535l0,0c-10.683,10.683-28.004,10.683-38.687,0l0,0h-8.535c-2.566,0-5.083,0.243-7.529,0.703
	c-16.257,3.061-29.353,15.858-32.393,32.636l-2.833,15.643h141.266L148.632,310.544z"/>
<path style="fill:#FFE6B8;" d="M410.555,234.6c0.43,6.601,3.817,12.74,9.364,16.343c6.847,4.448,15.652,4.448,22.498,0
	c5.547-3.604,8.933-9.742,9.364-16.343l1.634-25.046c0.838-12.856-9.363-23.745-22.247-23.745l0,0
	c-12.884,0-23.085,10.889-22.246,23.745L410.555,234.6z"/>
<path style="fill:#BCC987;" d="M498.967,310.544c-3.039-16.779-16.136-29.575-32.393-32.636c-2.446-0.461-4.963-0.703-7.529-0.703
	h-8.535l0,0c-10.683,10.683-28.004,10.683-38.687,0l0,0h-8.535c-2.566,0-5.083,0.243-7.529,0.703
	c-16.257,3.061-29.353,15.858-32.393,32.636l-2.833,15.643h141.266L498.967,310.544z"/>
<g>
	<path style="fill:#4D3D36;" d="M256,89.303c-5.85,0-11.702-1.657-16.805-4.974c-8.111-5.27-13.34-14.328-13.986-24.231
		c0,0,0,0,0-0.001l-1.634-25.046c-0.582-8.932,2.594-17.801,8.713-24.331S247.05,0.443,255.999,0.443
		c8.949,0,17.592,3.745,23.711,10.277c6.12,6.532,9.296,15.4,8.713,24.331l-1.634,25.047c-0.647,9.904-5.875,18.962-13.985,24.232
		C267.702,87.645,261.85,89.303,256,89.303z M245.564,58.768c0.23,3.514,2.003,6.675,4.744,8.456c3.459,2.245,7.926,2.247,11.385,0
		c2.741-1.781,4.513-4.942,4.743-8.456l1.634-25.045c0.219-3.373-0.932-6.59-3.244-9.057c-2.312-2.466-5.445-3.825-8.825-3.825
		s-6.514,1.359-8.825,3.825c-2.312,2.467-3.464,5.684-3.244,9.057L245.564,58.768z"/>
	<path style="fill:#4D3D36;" d="M326.634,161.219H185.366c-3.023,0-5.89-1.341-7.829-3.661c-1.937-2.32-2.746-5.381-2.207-8.355
		l2.833-15.643c3.726-20.565,20.018-36.977,40.541-40.841c3.099-0.583,6.267-0.879,9.417-0.879h8.534
		c2.705,0,5.298,1.075,7.212,2.987c3.24,3.24,7.548,5.025,12.132,5.025s8.892-1.785,12.132-5.025
		c1.913-1.912,4.507-2.987,7.212-2.987h8.534c3.151,0,6.318,0.296,9.417,0.879c20.523,3.864,36.815,20.277,40.541,40.841l0,0
		l2.833,15.643c0.539,2.975-0.27,6.035-2.207,8.355C332.524,159.878,329.657,161.219,326.634,161.219z M197.58,140.82h116.841
		l-0.657-3.626c-2.23-12.302-11.972-22.12-24.245-24.431c-1.856-0.35-3.755-0.527-5.642-0.527h-4.682
		c-6.589,5.194-14.676,8.012-23.195,8.012c-8.52,0-16.606-2.818-23.195-8.012h-4.682c-1.888,0-3.786,0.177-5.642,0.527
		c-12.272,2.311-22.015,12.129-24.245,24.431L197.58,140.82z"/>
	<path style="fill:#4D3D36;" d="M256,439.638c-5.851,0-11.701-1.657-16.806-4.974c-8.109-5.269-13.339-14.327-13.985-24.231l0,0
		l-1.634-25.047c-0.582-8.931,2.594-17.8,8.713-24.331c6.12-6.531,14.762-10.277,23.711-10.277c8.949,0,17.592,3.745,23.711,10.277
		c6.12,6.532,9.296,15.4,8.713,24.33l-1.634,25.047c-0.647,9.904-5.876,18.963-13.985,24.232
		C267.702,437.979,261.849,439.638,256,439.638z M245.564,409.102c0.23,3.514,2.003,6.674,4.744,8.455
		c3.459,2.247,7.926,2.247,11.384,0c2.742-1.781,4.514-4.941,4.744-8.455l1.634-25.046c0.219-3.373-0.932-6.59-3.244-9.056
		c-2.311-2.466-5.445-3.825-8.825-3.825s-6.515,1.359-8.825,3.825c-2.312,2.466-3.464,5.683-3.244,9.057L245.564,409.102z"/>
	<path style="fill:#4D3D36;" d="M326.634,511.554H185.366c-3.023,0-5.89-1.341-7.829-3.661c-1.937-2.32-2.746-5.381-2.207-8.355
		l2.833-15.643c3.726-20.565,20.018-36.977,40.541-40.842c3.101-0.583,6.268-0.879,9.417-0.879h8.534
		c2.705,0,5.298,1.075,7.212,2.987c6.69,6.69,17.573,6.691,24.263,0c1.913-1.912,4.507-2.987,7.212-2.987h8.534
		c3.153,0,6.32,0.296,9.417,0.879c20.523,3.864,36.815,20.277,40.541,40.841l0,0l2.833,15.643c0.539,2.975-0.27,6.035-2.207,8.355
		C332.524,510.213,329.657,511.554,326.634,511.554z M197.58,491.156h116.841l-0.657-3.626c-2.23-12.302-11.972-22.12-24.245-24.431
		c-1.855-0.349-3.754-0.526-5.642-0.526h-4.688c-13.558,10.66-32.821,10.66-46.381,0h-4.688c-1.887,0-3.786,0.177-5.644,0.527
		c-12.27,2.311-22.013,12.129-24.242,24.431L197.58,491.156z"/>
	<path style="fill:#4D3D36;" d="M80.833,264.471c-5.85,0-11.702-1.658-16.806-4.974c-8.111-5.27-13.34-14.329-13.985-24.232
		l-1.634-25.046c-0.582-8.93,2.593-17.799,8.711-24.329c6.12-6.532,14.763-10.278,23.713-10.278s17.593,3.746,23.712,10.278
		c6.118,6.531,9.294,15.4,8.711,24.33l-1.634,25.047c-0.646,9.902-5.873,18.961-13.984,24.231
		C92.534,262.812,86.683,264.471,80.833,264.471z M80.833,196.008c-3.38,0-6.515,1.359-8.826,3.826
		c-2.311,2.466-3.464,5.683-3.243,9.056l1.634,25.047l0,0c0.229,3.513,2.002,6.672,4.744,8.454c3.459,2.247,7.926,2.247,11.384,0
		c2.742-1.781,4.514-4.94,4.743-8.454l1.634-25.047c0.22-3.373-0.932-6.59-3.243-9.056
		C87.347,197.368,84.213,196.008,80.833,196.008z"/>
	<path style="fill:#4D3D36;" d="M151.466,336.386H10.199c-3.023,0-5.89-1.341-7.829-3.661c-1.937-2.32-2.746-5.381-2.207-8.355
		l2.833-15.643c3.726-20.564,20.018-36.976,40.541-40.841c3.099-0.583,6.267-0.879,9.416-0.879h8.535
		c2.705,0,5.298,1.075,7.212,2.987c6.69,6.691,17.573,6.69,24.263,0c1.913-1.912,4.507-2.987,7.211-2.987h8.534
		c3.153,0,6.32,0.296,9.418,0.879c20.523,3.865,36.815,20.277,40.541,40.841l0,0l2.833,15.643c0.539,2.975-0.27,6.035-2.207,8.355
		C157.356,335.045,154.489,336.386,151.466,336.386z M22.413,315.988h116.841l-0.657-3.626c-2.23-12.301-11.972-22.12-24.245-24.431
		c-1.856-0.35-3.754-0.527-5.641-0.527h-4.682c-6.589,5.194-14.676,8.012-23.195,8.012s-16.606-2.818-23.195-8.012h-4.684
		c-1.887,0-3.785,0.177-5.641,0.527c-12.272,2.311-22.015,12.13-24.245,24.431L22.413,315.988z"/>
	<path style="fill:#4D3D36;" d="M431.167,264.471c-5.851,0-11.701-1.657-16.806-4.974c-8.111-5.27-13.339-14.329-13.984-24.232
		l-1.634-25.046c-0.582-8.93,2.593-17.8,8.711-24.33c6.12-6.532,14.762-10.278,23.712-10.278c8.949,0,17.592,3.745,23.711,10.277
		c6.12,6.532,9.296,15.4,8.713,24.33l-1.634,25.047c-0.646,9.903-5.874,18.962-13.985,24.232
		C442.869,262.812,437.017,264.471,431.167,264.471z M431.167,196.008c-3.38,0-6.515,1.359-8.825,3.825
		c-2.31,2.466-3.464,5.683-3.243,9.056l1.634,25.047l0,0c0.229,3.513,2.002,6.673,4.743,8.454c3.461,2.247,7.928,2.246,11.384,0
		c2.742-1.781,4.515-4.942,4.744-8.454l1.634-25.047c0.219-3.373-0.932-6.59-3.244-9.056
		C437.683,197.367,434.548,196.008,431.167,196.008z"/>
	<path style="fill:#4D3D36;" d="M501.801,336.386H360.534c-3.023,0-5.89-1.341-7.829-3.661c-1.937-2.32-2.746-5.381-2.207-8.355
		l2.833-15.643c3.726-20.564,20.018-36.976,40.542-40.841c3.096-0.583,6.265-0.879,9.416-0.879h8.534
		c2.705,0,5.298,1.075,7.212,2.987c6.69,6.691,17.573,6.69,24.263,0c1.913-1.912,4.507-2.987,7.211-2.987h8.535
		c3.151,0,6.318,0.296,9.417,0.879c20.523,3.865,36.815,20.277,40.541,40.841l0,0l2.833,15.643c0.539,2.975-0.27,6.035-2.207,8.355
		C507.691,335.045,504.824,336.386,501.801,336.386z M372.747,315.988h116.841l-0.657-3.626
		c-2.23-12.301-11.972-22.12-24.245-24.431c-1.856-0.35-3.755-0.527-5.641-0.527h-4.683c-6.589,5.194-14.676,8.012-23.195,8.012
		c-8.519,0-16.606-2.818-23.195-8.012h-4.682c-1.888,0-3.785,0.177-5.64,0.527c-12.274,2.311-22.017,12.13-24.246,24.431
		L372.747,315.988z"/>
	<path style="fill:#4D3D36;" d="M97.059,151.183c-2.055,0-4.13-0.619-5.929-1.907c-4.58-3.279-5.634-9.65-2.356-14.231
		c24.94-34.832,60.923-61.543,101.32-75.21c5.337-1.804,11.125,1.058,12.931,6.393c1.805,5.335-1.057,11.124-6.393,12.93
		c-36.384,12.309-68.798,36.374-91.272,67.762C103.37,149.701,100.237,151.183,97.059,151.183z"/>
	<path style="fill:#4D3D36;" d="M415.252,151.183c-3.179,0-6.311-1.481-8.302-4.263c-15.823-22.099-36.701-40.783-60.377-54.03
		c-4.915-2.751-6.671-8.965-3.921-13.881c2.75-4.916,8.967-6.669,13.88-3.921c26.277,14.702,49.446,35.435,67.003,59.957
		c3.279,4.579,2.225,10.951-2.356,14.23C419.381,150.564,417.307,151.183,415.252,151.183z"/>
	<path style="fill:#4D3D36;" d="M323.945,81.466c-1.173,0-2.365-0.204-3.531-0.634c-1.56-0.576-3.155-1.14-4.737-1.676
		c-5.335-1.805-8.197-7.594-6.393-12.93c1.806-5.335,7.593-8.2,12.931-6.392c1.757,0.595,3.528,1.221,5.262,1.86
		c5.285,1.951,7.987,7.816,6.036,13.1C331.994,78.915,328.094,81.466,323.945,81.466z"/>
	<path style="fill:#4D3D36;" d="M193.365,442.069c-1.084,0-2.186-0.174-3.27-0.541c-40.396-13.667-76.38-40.377-101.32-75.21
		c-3.279-4.58-2.225-10.951,2.356-14.231c4.579-3.279,10.95-2.224,14.23,2.355c22.474,31.388,54.888,55.454,91.272,67.762
		c5.335,1.805,8.197,7.594,6.393,12.93C201.586,439.387,197.618,442.069,193.365,442.069z"/>
	<path style="fill:#4D3D36;" d="M318.946,442.069c-4.253,0-8.223-2.681-9.661-6.933c-1.805-5.335,1.057-11.124,6.393-12.93
		c36.384-12.308,68.798-36.373,91.272-67.762c3.278-4.578,9.649-5.634,14.23-2.355c4.58,3.279,5.634,9.65,2.356,14.231
		c-25.303,35.338-60.339,61.345-101.321,75.21C321.132,441.895,320.03,442.069,318.946,442.069z"/>
</g>
</svg>