<svg xmlns="http://www.w3.org/2000/svg"  viewBox="0 0 50 50" width="50px" height="50px"><path d="M 13 4 C 8.038 4 4 8.037 4 13 L 4 37 C 4 41.963 8.038 46 13 46 L 37 46 C 41.962 46 46 41.963 46 37 L 46 13 C 46 8.037 41.962 4 37 4 L 13 4 z M 13 6 L 37 6 C 40.86 6 44 9.141 44 13 L 44 37 C 44 40.859 40.86 44 37 44 L 13 44 C 9.14 44 6 40.859 6 37 L 6 13 C 6 9.141 9.14 6 13 6 z M 27.044922 12.275391 C 25.790922 12.275391 24.877813 12.393313 24.132812 12.570312 C 23.396813 12.747313 22.832438 12.978938 22.273438 13.210938 C 20.546438 13.924937 19.32775 14.424203 18.46875 14.783203 L 16.410156 15.628906 C 12.614156 17.187906 11.818359 19.732797 11.818359 21.591797 C 11.818359 24.609797 14.318641 27.273438 18.181641 27.273438 C 19.136641 27.273438 20.559438 26.996094 21.773438 26.496094 L 23.917969 25.609375 L 27.595703 24.091797 C 28.495703 23.722797 29.089844 23.355125 29.089844 22.328125 C 29.089844 20.455125 27.180125 19.799688 25.953125 20.304688 L 20.044922 22.75 C 19.212922 23.091 18.608203 23.181641 18.408203 23.181641 C 16.449203 23.181641 16.363281 21.609797 16.363281 21.591797 C 16.363281 21.231797 16.363719 20.558172 18.136719 19.826172 L 24.091797 17.386719 C 24.091797 17.386719 26.023 16.591797 27.5 16.591797 C 31.363 16.591797 33.636719 19.545203 33.636719 22.158203 C 33.636719 25.244203 31.650016 26.272672 31.041016 26.513672 L 21.464844 30.453125 C 20.955844 30.662125 20.755781 31.280047 21.050781 31.748047 L 23.835938 36.148438 C 24.267938 36.834438 24.791703 37.726562 26.095703 37.726562 C 26.885703 37.726563 28.408203 37.312172 28.408203 35.576172 C 28.408203 35.099172 28.303156 34.694578 28.035156 34.267578 L 27.285156 33.117188 C 27.249156 33.054187 27.275844 32.976219 27.339844 32.949219 L 32.689453 30.744141 C 32.976453 30.635141 33.821484 30.272344 34.771484 29.527344 C 36.339484 28.290344 38.181641 26.021203 38.181641 22.158203 C 38.181641 17.727203 34.317922 12.274391 27.044922 12.275391 z"/></svg>