<?xml version="1.0" encoding="iso-8859-1"?>
<!-- Uploaded to: SVG Repo, www.svgrepo.com, Generator: SVG Repo Mixer Tools -->
<svg height="800px" width="800px" version="1.1" id="Layer_1" xmlns="http://www.w3.org/2000/svg" xmlns:xlink="http://www.w3.org/1999/xlink" 
	 viewBox="0 0 511.999 511.999" xml:space="preserve">
<path style="fill:#CFF09E;" d="M119.459,318.482c0-78.374,82.721-141.909,184.764-141.909c28.277,0,55.063,4.885,79.023,13.607
	c-2.307-76.833-84.118-138.573-184.709-138.573c-102.041,0-184.764,63.535-184.764,141.908c0,56.657,43.234,105.551,105.741,128.303
	C119.481,320.707,119.459,319.596,119.459,318.482z"/>
<g>
	<path style="fill:#507C5C;" d="M510.996,455.229l-27.892-69.013c12.884-20.984,19.656-44.254,19.656-67.736
		c0-24.601-7.066-48.121-20.999-69.908c-4.102-6.407-12.618-8.282-19.025-4.182c-6.409,4.099-8.282,12.616-4.183,19.025
		c11.054,17.283,16.66,35.811,16.66,55.066c0,20.551-6.362,40.211-18.911,58.433c-2.624,3.811-3.16,8.684-1.426,12.973
		l20.679,51.167l-69.627-15.983c-3.062-0.702-6.274-0.337-9.099,1.034c-27.624,13.418-59.645,20.511-92.605,20.511
		c-94.285,0-170.99-57.482-170.99-128.136c0-5.52,0.468-10.959,1.376-16.297c10.717-62.988,82.696-111.838,169.614-111.838
		c26.021,0,51.023,4.299,74.311,12.776c1.554,0.565,3.194,0.824,4.777,0.831c7.59-0.021,13.736-6.179,13.736-13.773
		c0-0.456-0.022-0.906-0.065-1.351c-1.543-41.113-23.161-79.351-60.959-107.758c-37.097-27.883-85.924-43.237-137.485-43.237
		c-52.369,0-101.748,15.773-139.038,44.415C21.131,111.715,0,151.231,0,193.514c0,30.67,11.294,60.315,32.662,85.729
		c18.569,22.088,43.931,40.014,73.708,52.23c3.874,37.338,24.406,71.849,58.816,98.277c37.29,28.64,86.669,44.415,139.038,44.415
		c35.36,0,69.884-7.311,100.186-21.178l90.735,20.829c1.023,0.234,2.056,0.35,3.081,0.35c3.982,0,7.83-1.73,10.479-4.836
		C512.037,465.422,512.919,459.989,510.996,455.229z M27.547,193.514c0-70.654,76.705-128.136,170.99-128.136
		c45.631,0,88.58,13.393,120.937,37.711c24.861,18.685,41.182,42.164,47.318,67.564c-20.065-5.219-41.027-7.854-62.569-7.854
		c-52.369,0-101.748,15.773-139.038,44.415c-1.125,0.864-2.231,1.738-3.326,2.618c-0.359,0.289-0.711,0.583-1.067,0.875
		c-0.731,0.598-1.459,1.196-2.176,1.8c-0.413,0.348-0.821,0.7-1.23,1.051c-0.65,0.558-1.296,1.118-1.934,1.682
		c-0.42,0.37-0.837,0.744-1.252,1.117c-0.621,0.559-1.237,1.123-1.847,1.689c-0.404,0.373-0.807,0.748-1.205,1.124
		c-0.627,0.592-1.245,1.19-1.861,1.789c-0.361,0.351-0.726,0.701-1.083,1.054c-0.722,0.715-1.431,1.437-2.136,2.161
		c-0.234,0.241-0.474,0.478-0.707,0.72c-0.923,0.96-1.83,1.928-2.724,2.902c-0.262,0.286-0.515,0.576-0.774,0.862
		c-0.632,0.701-1.262,1.402-1.879,2.11c-0.332,0.382-0.657,0.766-0.985,1.15c-0.532,0.621-1.059,1.244-1.578,1.872
		c-0.343,0.413-0.68,0.829-1.018,1.245c-0.494,0.61-0.983,1.222-1.467,1.837c-0.332,0.421-0.661,0.844-0.988,1.269
		c-0.483,0.629-0.96,1.262-1.432,1.897c-0.303,0.408-0.609,0.815-0.908,1.224c-0.51,0.7-1.008,1.405-1.504,2.11
		c-0.244,0.348-0.494,0.693-0.736,1.043c-0.722,1.047-1.431,2.099-2.121,3.158c-0.109,0.167-0.211,0.335-0.318,0.501
		c-0.583,0.902-1.157,1.808-1.716,2.72c-0.238,0.387-0.467,0.777-0.7,1.165c-0.42,0.698-0.837,1.397-1.244,2.1
		c-0.253,0.438-0.5,0.879-0.748,1.318c-0.373,0.664-0.742,1.328-1.105,1.996c-0.247,0.455-0.489,0.909-0.73,1.366
		c-0.353,0.669-0.698,1.34-1.039,2.012c-0.227,0.449-0.456,0.898-0.678,1.348c-0.353,0.715-0.693,1.432-1.032,2.153
		c-0.191,0.408-0.388,0.815-0.576,1.224c-0.415,0.905-0.814,1.813-1.208,2.724c-0.098,0.226-0.201,0.45-0.298,0.676
		c-0.481,1.132-0.945,2.271-1.392,3.413c-0.138,0.35-0.264,0.702-0.399,1.054c-0.307,0.802-0.61,1.605-0.899,2.412
		c-0.16,0.442-0.311,0.887-0.466,1.332c-0.252,0.724-0.499,1.449-0.738,2.176c-0.153,0.468-0.302,0.937-0.449,1.406
		c-0.226,0.716-0.444,1.432-0.657,2.151c-0.139,0.471-0.277,0.942-0.41,1.413c-0.209,0.741-0.409,1.483-0.605,2.227
		c-0.117,0.445-0.237,0.89-0.35,1.336c-0.212,0.846-0.412,1.693-0.607,2.541c-0.079,0.344-0.165,0.689-0.241,1.034
		c-0.263,1.193-0.511,2.39-0.74,3.591c-0.043,0.222-0.077,0.445-0.118,0.667c-0.182,0.983-0.355,1.967-0.514,2.954
		c-0.067,0.419-0.125,0.84-0.189,1.26c-0.085,0.573-0.179,1.143-0.258,1.718C58.111,278.171,27.547,237.219,27.547,193.514z"/>
	<path style="fill:#507C5C;" d="M395.118,291.222H214.688c-7.606,0-13.773-6.166-13.773-13.773s6.168-13.773,13.773-13.773h180.431
		c7.606,0,13.773,6.166,13.773,13.773S402.725,291.222,395.118,291.222z"/>
	<path style="fill:#507C5C;" d="M395.118,368.939H214.688c-7.606,0-13.773-6.166-13.773-13.773s6.168-13.773,13.773-13.773h180.431
		c7.606,0,13.773,6.166,13.773,13.773C408.892,362.773,402.725,368.939,395.118,368.939z"/>
</g>
</svg>