<?xml version="1.0" encoding="utf-8"?>
<!-- Uploaded to: SVG Repo, www.svgrepo.com, Generator: SVG Repo Mixer Tools -->
<svg fill="#000000" height="800px" width="800px" version="1.1" id="_x31_" xmlns="http://www.w3.org/2000/svg" xmlns:xlink="http://www.w3.org/1999/xlink" 
	 viewBox="0 0 128 128" xml:space="preserve">
<g>
	<circle cx="91.1" cy="25.2" r="8.7"/>
	<path d="M93.9,36.2c-0.2,0-1.1,0.1-1.1,0.1c-6.9,1.2-12.3,7.2-12.3,14.5c0,0.1-0.1,1.3,0,1.6c0,6.5,0.8,12.8,2.2,18.8
		c0.4,1.8,1.6,3.4,2.9,4.5V116c0,3,2.5,5.5,5.5,5.5c3,0,5.5-2.5,5.5-5.5V79.7c-0.6,0.1-1.1,0.2-1.7,0.2c-2,0-3.6-0.9-4.7-2.2
		c-0.7-1.1-1.3-2.5-1.3-3.8V49.3c0-0.7,0.4-1.1,1.1-1.1s1.1,0.4,1.1,1.1v24.5c0,2.1,1.8,3.8,3.8,3.8s3.8-1.8,3.8-3.8
		c0,0,0-32.7,0-32.8C98.8,38.3,96.6,36.2,93.9,36.2z"/>
	<circle cx="33" cy="25" r="8.5"/>
	<path d="M62.8,37.3l-14.5,5.3l-14-6.5c-0.8-0.3-1.6-0.5-2.5-0.5c-0.8,0-3.5,0-4.2,0c-3.5,0-6.3,2.9-6.4,6.4v26.4
		c0,1.8,0.7,3.4,1.9,4.6c0,0,2.3,43.1,2.3,43.3c0,2.9,2.3,5.2,5.2,5.2c2.7,0,5-2.1,5.2-4.8c0,0,0,0,0,0l0-0.3c0,0,0-0.1,0-0.1
		c0,0,0,0,0,0L37.1,72c0.7-1,1.1-2.3,1.1-3.5V46.1l8.4,3.9c0.9,0.5,2,0.5,2.9,0.2l16-5.8c2-0.8,2.9-2.8,2.3-4.8
		C66.8,37.6,64.7,36.6,62.8,37.3z"/>
	<path d="M56.9,5.2c-6.3,0-11.4,2.7-11.4,5.9c0,1.3,0.8,2.5,2.2,3.5l-3.1,5.7l7.3-3.9c1.5,0.4,3.2,0.6,5,0.6
		c6.3,0,11.4-2.7,11.4-5.9C68.3,7.8,63.2,5.2,56.9,5.2z"/>
</g>
</svg>